<svg xmlns="http://www.w3.org/2000/svg" width="400" height="400" enable-background="new 0 0 400 400" viewBox="0 0 400 400"><path fill="#ffff" d="M308.121 277.63c-50.033 33.934-119.339 20.872-154.107-28.543-34.762-49.423-23.628-119.068 25.22-154.687 3.141-2.295 4.351-6.4 2.953-10.021-1.398-3.626-5.046-5.861-8.909-5.453-24.556 2.607-48.208 11.487-68.42 25.709C39.07 150.904 23.53 242.536 69.801 308.322c46.272 65.785 137.763 82.125 203.55 35.848 20.211-14.213 36.561-33.471 47.32-55.705 1.691-3.491.82-7.688-2.127-10.227C315.617 275.701 311.342 275.45 308.121 277.63zM283.232 59.096c0 1.822-.74 3.474-1.932 4.665-1.197 1.193-2.846 1.931-4.67 1.931h-16.42v16.425c0 3.646-2.959 6.599-6.602 6.599-1.822 0-3.473-.736-4.67-1.932-1.191-1.197-1.932-2.843-1.932-4.667V65.691h-16.424c-3.637 0-6.595-2.949-6.595-6.596 0-1.827.733-3.476 1.931-4.67s2.846-1.934 4.664-1.934h16.424V36.07c0-3.643 2.953-6.599 6.602-6.599 1.818 0 3.475.74 4.672 1.935 1.189 1.193 1.93 2.846 1.93 4.664v16.422h16.42C280.279 52.492 283.232 55.448 283.232 59.096z"/><path fill="#ffff" d="M259.541 163.072c0 1.82-.74 3.473-1.938 4.67-1.189 1.191-2.84 1.925-4.664 1.925h-16.418v16.428c0 3.643-2.959 6.595-6.607 6.595-1.818 0-3.475-.732-4.666-1.931-1.189-1.193-1.93-2.84-1.93-4.664v-16.428h-16.425c-3.643 0-6.595-2.946-6.595-6.595 0-1.821.733-3.474 1.93-4.668 1.191-1.194 2.84-1.934 4.665-1.934h16.425v-16.422c0-3.646 2.953-6.602 6.596-6.602 1.824 0 3.473.74 4.67 1.935s1.938 2.846 1.938 4.667v16.422h16.418C256.582 156.471 259.541 159.427 259.541 163.072zM356.818 133.45c0 1.822-.74 3.474-1.938 4.667-1.197 1.195-2.846 1.932-4.664 1.932h-16.426v16.425c0 3.646-2.959 6.596-6.6 6.596-1.826 0-3.473-.733-4.666-1.932-1.197-1.194-1.936-2.843-1.936-4.664v-16.425h-16.42c-3.648 0-6.602-2.953-6.602-6.599 0-1.824.74-3.473 1.932-4.667 1.197-1.194 2.846-1.934 4.67-1.934h16.42v-16.419c0-3.648 2.953-6.604 6.602-6.604 1.822 0 3.473.739 4.67 1.934 1.191 1.197 1.93 2.847 1.93 4.671v16.419h16.426C353.859 126.85 356.818 129.802 356.818 133.45z"/></svg>