<svg width="49" height="49" viewBox="0 0 49 49" fill="none" xmlns="http://www.w3.org/2000/svg">
<path d="M38.7917 0H10.2083C4.57129 0 0 4.57129 0 10.2083V38.7917C0 44.4287 4.57129 49 10.2083 49H38.7917C44.4308 49 49 44.4287 49 38.7917V10.2083C49 4.57129 44.4308 0 38.7917 0ZM38.5079 18.8589C38.9346 28.2853 31.9051 38.7958 19.4591 38.7958C15.6739 38.7958 12.152 37.6871 9.18546 35.7843C12.742 36.2028 16.2905 35.2167 19.108 33.0097C16.1741 32.9545 13.6996 31.017 12.8482 28.3547C13.8997 28.5548 14.9328 28.4955 15.874 28.2403C12.6502 27.5931 10.4268 24.6899 10.4983 21.5845C11.4007 22.0867 12.4358 22.3889 13.5322 22.4236C10.5493 20.4289 9.70404 16.4885 11.4578 13.475C14.7633 17.5298 19.7021 20.1982 25.2718 20.4779C24.2938 16.2864 27.4767 12.25 31.803 12.25C33.7283 12.25 35.4719 13.0626 36.6928 14.3672C38.22 14.0671 39.6553 13.5097 40.9518 12.742C40.4495 14.308 39.3878 15.6208 38.0056 16.4497C39.3613 16.2864 40.6537 15.927 41.8542 15.3942C40.9579 16.7335 39.8207 17.9136 38.5079 18.8589Z" fill="url(#paint0_linear)"/>
<defs>
<linearGradient id="paint0_linear" x1="24.5" y1="0" x2="24.5" y2="49" gradientUnits="userSpaceOnUse">
<stop stop-color="#38A4D3"/>
<stop offset="1" stop-color="#38D39F"/>
</linearGradient>
</defs>
</svg>
